<svg width="304" height="304" viewBox="0 0 304 304" fill="none" xmlns="http://www.w3.org/2000/svg">
<circle cx="264" cy="91" r="24" fill="black"/>
<path d="M269.11 84.8438H274L271.555 75H254.445L256.89 84.8438H261.774L264.219 94.6938H261.166L262.389 99.6125H265.442L266.665 104.538H274L269.11 84.8438Z" fill="url(#paint0_linear_612_2611)"/>
<path d="M271.555 87.3062H269.718L269.11 84.8438H274L271.555 87.3062Z" fill="url(#paint1_linear_612_2611)"/>
<path d="M269.11 79.925H258.113L257.803 78.6937H270.028L269.11 79.925Z" fill="url(#paint2_linear_612_2611)"/>
<path d="M254.445 87.3062L252 77.4625L254.445 75L256.89 84.8438L254.445 87.3062Z" fill="url(#paint3_linear_612_2611)"/>
<path d="M265.442 99.6125H262.389L259.944 102.075H262.997L265.442 99.6125Z" fill="url(#paint4_linear_612_2611)"/>
<path d="M259.335 87.3062H254.445L256.89 84.8438H261.774L259.335 87.3062Z" fill="url(#paint5_linear_612_2611)"/>
<path d="M264.219 94.6938H261.166L259.335 87.3062L261.774 84.8438L264.219 94.6938Z" fill="url(#paint6_linear_612_2611)"/>
<path d="M262.389 99.6125L261.166 94.6938L258.721 97.1563L259.944 102.075L262.389 99.6125Z" fill="url(#paint7_linear_612_2611)"/>
<path d="M266.665 104.538L265.442 99.6125L262.997 102.075L264.219 107L266.665 104.538Z" fill="url(#paint8_linear_612_2611)"/>
<path d="M271.555 104.538L266.056 82.3875L265.076 83.3687L270.332 104.538L269.352 105.525H270.574L271.555 104.538Z" fill="url(#paint9_linear_612_2611)"/>
<path d="M270.941 82.3875H269.718L269.11 79.925L270.028 78.6937L270.941 82.3875Z" fill="url(#paint10_linear_612_2611)"/>
<path d="M271.555 104.538L270.574 105.525H269.352L270.332 104.538H266.665L264.219 107H271.555L274 104.538H271.555Z" fill="url(#paint11_linear_612_2611)"/>
<circle cx="211" cy="266" r="24" fill="#0052FF"/>
<path d="M211.03 274C206.602 274 203.015 270.42 203.015 266C203.015 261.58 206.602 258 211.03 258C214.998 258 218.29 260.887 218.925 264.667H227C226.319 256.453 219.432 250 211.03 250C202.18 250 195 257.167 195 266C195 274.833 202.18 282 211.03 282C219.432 282 226.319 275.547 227 267.333H218.918C218.284 271.113 214.998 274 211.03 274Z" fill="white"/>
<circle cx="280" cy="152" r="24" fill="url(#paint12_linear_612_2611)"/>
<path fill-rule="evenodd" clip-rule="evenodd" d="M297.181 152.292H292.951C292.951 143.67 285.936 136.681 277.283 136.681C268.738 136.681 261.79 143.499 261.62 151.974C261.444 160.734 269.692 168.34 278.484 168.34H279.59C287.341 168.34 297.731 162.294 299.354 154.927C299.654 153.569 298.577 152.292 297.181 152.292ZM270.996 152.677C270.996 153.83 270.05 154.773 268.893 154.773C267.735 154.773 266.789 153.829 266.789 152.677V149.286C266.789 148.133 267.735 147.19 268.893 147.19C270.05 147.19 270.996 148.133 270.996 149.286V152.677ZM276.197 154.773C277.354 154.773 278.3 153.83 278.3 152.677V149.286C278.3 148.133 277.354 147.19 276.197 147.19C275.04 147.19 274.093 148.133 274.093 149.286V152.677C274.093 153.829 275.04 154.773 276.197 154.773Z" fill="url(#paint13_linear_612_2611)"/>
<circle cx="40" cy="91" r="24" fill="#F7F9FB"/>
<path d="M54.4174 76L41.9166 85.375L44.2412 79.85L54.4174 76Z" fill="#E17726" stroke="#E17726" stroke-width="0.25" stroke-linecap="round" stroke-linejoin="round"/>
<path d="M25.5827 76L37.9722 85.4625L35.7589 79.85L25.5827 76Z" fill="#E27625" stroke="#E27625" stroke-width="0.25" stroke-linecap="round" stroke-linejoin="round"/>
<path d="M49.9163 97.7374L46.5902 102.887L53.7123 104.875L55.7525 97.8499L49.9163 97.7374Z" fill="#E27625" stroke="#E27625" stroke-width="0.25" stroke-linecap="round" stroke-linejoin="round"/>
<path d="M24.2596 97.8499L26.2874 104.875L33.3971 102.887L30.0834 97.7374L24.2596 97.8499Z" fill="#E27625" stroke="#E27625" stroke-width="0.25" stroke-linecap="round" stroke-linejoin="round"/>
<path d="M33.0138 89.0375L31.0354 92.0625L38.0833 92.3875L37.8484 84.7L33.0138 89.0375Z" fill="#E27625" stroke="#E27625" stroke-width="0.25" stroke-linecap="round" stroke-linejoin="round"/>
<path d="M46.9858 89.0376L42.0771 84.6126L41.9164 92.3876L48.9642 92.0626L46.9858 89.0376Z" fill="#E27625" stroke="#E27625" stroke-width="0.25" stroke-linecap="round" stroke-linejoin="round"/>
<path d="M33.3972 102.887L37.663 100.8L33.9908 97.8999L33.3972 102.887Z" fill="#E27625" stroke="#E27625" stroke-width="0.25" stroke-linecap="round" stroke-linejoin="round"/>
<path opacity="0.8" d="M42.337 100.8L46.5904 102.887L46.0092 97.8999L42.337 100.8Z" fill="#E27625" stroke="#E27625" stroke-width="0.25" stroke-linecap="round" stroke-linejoin="round"/>
<path d="M46.5904 102.888L42.337 100.8L42.6831 103.6L42.646 104.788L46.5904 102.888Z" fill="#D5BFB2" stroke="#D5BFB2" stroke-width="0.25" stroke-linecap="round" stroke-linejoin="round"/>
<path d="M33.3972 102.888L37.354 104.788L37.3292 103.6L37.663 100.8L33.3972 102.888Z" fill="#D5BFB2" stroke="#D5BFB2" stroke-width="0.25" stroke-linecap="round" stroke-linejoin="round"/>
<path d="M37.428 96.0499L33.8917 95L36.3894 93.8375L37.428 96.0499Z" fill="#233447" stroke="#233447" stroke-width="0.25" stroke-linecap="round" stroke-linejoin="round"/>
<path d="M42.5719 96.0499L43.6105 93.8375L46.1206 95L42.5719 96.0499Z" fill="#233447" stroke="#233447" stroke-width="0.25" stroke-linecap="round" stroke-linejoin="round"/>
<path d="M33.3971 102.887L34.0154 97.7374L30.0834 97.8499L33.3971 102.887Z" fill="#CC6228" stroke="#CC6228" stroke-width="0.25" stroke-linecap="round" stroke-linejoin="round"/>
<path d="M45.9844 97.7374L46.5903 102.887L49.9164 97.8499L45.9844 97.7374Z" fill="#CC6228" stroke="#CC6228" stroke-width="0.25" stroke-linecap="round" stroke-linejoin="round"/>
<path d="M48.9642 92.0624L41.9164 92.3874L42.5717 96.05L43.6104 93.8374L46.1204 94.9999L48.9642 92.0624Z" fill="#CC6228" stroke="#CC6228" stroke-width="0.25" stroke-linecap="round" stroke-linejoin="round"/>
<path d="M33.8917 94.9999L36.3894 93.8374L37.428 96.05L38.0833 92.3874L31.0354 92.0624L33.8917 94.9999Z" fill="#CC6228" stroke="#CC6228" stroke-width="0.25" stroke-linecap="round" stroke-linejoin="round"/>
<path d="M31.0357 92.0624L33.9909 97.8999L33.8919 94.9999L31.0357 92.0624Z" fill="#E27525" stroke="#E27525" stroke-width="0.25" stroke-linecap="round" stroke-linejoin="round"/>
<path d="M46.1206 94.9999L46.0093 97.8999L48.9645 92.0624L46.1206 94.9999Z" fill="#E27525" stroke="#E27525" stroke-width="0.25" stroke-linecap="round" stroke-linejoin="round"/>
<path d="M38.0837 92.3874L37.4283 96.05L38.2568 100.375L38.4423 94.6749L38.0837 92.3874Z" fill="#E27525" stroke="#E27525" stroke-width="0.25" stroke-linecap="round" stroke-linejoin="round"/>
<path d="M41.9166 92.3874L41.5703 94.6625L41.7434 100.375L42.5719 96.05L41.9166 92.3874Z" fill="#E27525" stroke="#E27525" stroke-width="0.25" stroke-linecap="round" stroke-linejoin="round"/>
<path d="M42.5719 96.05L41.7434 100.375L42.337 100.8L46.0093 97.9L46.1206 95L42.5719 96.05Z" fill="#F5841F" stroke="#F5841F" stroke-width="0.25" stroke-linecap="round" stroke-linejoin="round"/>
<path d="M33.8917 95L33.9907 97.9L37.6629 100.8L38.2565 100.375L37.428 96.05L33.8917 95Z" fill="#F5841F" stroke="#F5841F" stroke-width="0.25" stroke-linecap="round" stroke-linejoin="round"/>
<path d="M42.6461 104.787L42.6831 103.6L42.3617 103.325H37.6384L37.3292 103.6L37.354 104.787L33.3972 102.887L34.7821 104.037L37.5889 106H42.3987L45.2179 104.037L46.5904 102.887L42.6461 104.787Z" fill="#C0AC9D" stroke="#C0AC9D" stroke-width="0.25" stroke-linecap="round" stroke-linejoin="round"/>
<path d="M42.3369 100.8L41.7433 100.375H38.2565L37.663 100.8L37.3292 103.6L37.6383 103.325H42.3616L42.6831 103.6L42.3369 100.8Z" fill="#161616" stroke="#161616" stroke-width="0.25" stroke-linecap="round" stroke-linejoin="round"/>
<path d="M54.9489 85.9875L56 80.8125L54.4173 76L42.337 85.0625L46.986 89.0375L53.5517 90.975L54.9984 89.2625L54.3679 88.8L55.3693 87.875L54.6028 87.275L55.6043 86.5L54.9489 85.9875Z" fill="#763E1A" stroke="#763E1A" stroke-width="0.25" stroke-linecap="round" stroke-linejoin="round"/>
<path d="M24 80.8125L25.0634 85.9875L24.3833 86.5L25.3972 87.275L24.6306 87.875L25.6321 88.8L25.0015 89.2625L26.4482 90.975L33.014 89.0375L37.663 85.0625L25.5827 76L24 80.8125Z" fill="#763E1A" stroke="#763E1A" stroke-width="0.25" stroke-linecap="round" stroke-linejoin="round"/>
<path d="M53.5518 90.9749L46.9861 89.0375L48.9645 92.0625L46.0093 97.8999L49.9166 97.85H55.7527L53.5518 90.9749Z" fill="#F5841F" stroke="#F5841F" stroke-width="0.25" stroke-linecap="round" stroke-linejoin="round"/>
<path d="M33.0138 89.0375L26.4481 90.9749L24.2596 97.85H30.0834L33.9906 97.8999L31.0354 92.0625L33.0138 89.0375Z" fill="#F5841F" stroke="#F5841F" stroke-width="0.25" stroke-linecap="round" stroke-linejoin="round"/>
<path d="M41.9165 92.3875L42.3369 85.0624L44.241 79.85H35.7588L37.6629 85.0624L38.0833 92.3875L38.2441 94.6875L38.2565 100.375H41.7433L41.7557 94.6875L41.9165 92.3875Z" fill="#F5841F" stroke="#F5841F" stroke-width="0.25" stroke-linecap="round" stroke-linejoin="round"/>
<path fill-rule="evenodd" clip-rule="evenodd" d="M288 213C288 226.255 277.255 237 264 237C250.745 237 240 226.255 240 213C240 199.745 250.745 189 264 189C277.255 189 288 199.745 288 213Z" fill="#E84142"/>
<path fill-rule="evenodd" clip-rule="evenodd" d="M257.199 222.55H252.541C251.563 222.55 251.079 222.55 250.784 222.362C250.466 222.155 250.271 221.813 250.248 221.436C250.23 221.088 250.472 220.664 250.955 219.815L262.456 199.543C262.945 198.683 263.193 198.252 263.505 198.093C263.841 197.922 264.242 197.922 264.578 198.093C264.891 198.252 265.139 198.683 265.628 199.543L267.992 203.67L268.004 203.692V203.692C268.533 204.615 268.801 205.083 268.918 205.575C269.047 206.111 269.047 206.677 268.918 207.214C268.8 207.709 268.535 208.181 267.998 209.118L261.957 219.797L261.941 219.824C261.409 220.755 261.14 221.227 260.766 221.583C260.359 221.972 259.87 222.255 259.333 222.415C258.844 222.55 258.296 222.55 257.199 222.55Z" fill="white"/>
<path fill-rule="evenodd" clip-rule="evenodd" d="M268.961 222.551H275.636V222.551C276.62 222.551 277.115 222.551 277.41 222.356C277.729 222.15 277.929 221.802 277.947 221.425C277.964 221.088 277.727 220.68 277.264 219.881C277.248 219.853 277.232 219.826 277.216 219.797L273.873 214.078L273.835 214.014C273.365 213.22 273.128 212.819 272.823 212.663C272.487 212.492 272.092 212.492 271.756 212.663C271.449 212.823 271.202 213.241 270.712 214.084L267.381 219.803L267.37 219.823C266.882 220.665 266.639 221.085 266.656 221.431C266.68 221.808 266.874 222.156 267.193 222.362C267.482 222.551 267.977 222.551 268.961 222.551Z" fill="white"/>
<circle cx="151" cy="24" r="24" fill="#7950DD"/>
<path d="M159.148 18.5539C158.557 18.1987 157.79 18.1987 157.14 18.5539L152.535 21.2769L149.406 23.0528L144.801 25.7759C144.21 26.131 143.443 26.131 142.793 25.7759L139.133 23.6448C138.542 23.2897 138.129 22.6385 138.129 21.9281V17.7252C138.129 17.0148 138.483 16.3636 139.133 16.0085L142.734 13.9366C143.325 13.5814 144.092 13.5814 144.742 13.9366L148.343 16.0085C148.934 16.3636 149.347 17.0148 149.347 17.7252V20.4482L152.476 18.6131V15.8901C152.476 15.1797 152.122 14.5285 151.472 14.1734L144.801 10.2664C144.21 9.91121 143.443 9.91121 142.793 10.2664L136.004 14.1734C135.354 14.5285 135 15.1797 135 15.8901V23.7632C135 24.4735 135.354 25.1247 136.004 25.4799L142.793 29.3868C143.384 29.7421 144.151 29.7421 144.801 29.3868L149.406 26.723L152.535 24.8879L157.14 22.2241C157.731 21.8689 158.498 21.8689 159.148 22.2241L162.749 24.296C163.34 24.6512 163.753 25.3023 163.753 26.0127V30.2156C163.753 30.926 163.399 31.5771 162.749 31.9323L159.148 34.0634C158.557 34.4186 157.79 34.4186 157.14 34.0634L153.539 31.9915C152.948 31.6364 152.535 30.9852 152.535 30.2748V27.5518L149.406 29.3868V32.1099C149.406 32.8202 149.76 33.4714 150.41 33.8266L157.199 37.7336C157.79 38.0888 158.557 38.0888 159.207 37.7336L165.996 33.8266C166.587 33.4714 167 32.8202 167 32.1099V24.2368C167 23.5264 166.646 22.8753 165.996 22.5201L159.148 18.5539Z" fill="white"/>
<circle cx="24" cy="152" r="24" fill="#22A079"/>
<path fill-rule="evenodd" clip-rule="evenodd" d="M27.2483 144.082V148.071L27.2526 148.075C34.5296 148.416 40 149.888 40 151.645C40 153.406 34.5296 154.873 27.2526 155.214V168H20.7686V155.214C13.4832 154.869 8 153.401 8 151.64C8 149.879 13.4789 148.412 20.7686 148.071V144.082H11.7996V138H36.2173V144.082H27.2483ZM27.2483 154.118V154.122V154.127C33.6729 153.833 38.4691 152.694 38.4691 151.329C38.4691 149.965 33.6772 148.826 27.2483 148.532V152.987C27.0618 153.004 26.061 153.091 24.0594 153.091C22.3928 153.091 21.1842 153.017 20.7644 152.987V148.528C14.3271 148.817 9.51816 149.961 9.51816 151.325C9.51816 152.694 14.3228 153.833 20.7644 154.122V154.118C21.18 154.14 22.3546 154.187 24.0297 154.187C26.1246 154.187 27.066 154.131 27.2483 154.118Z" fill="white"/>
<circle cx="40" cy="213" r="24" fill="url(#paint14_linear_612_2611)"/>
<path fill-rule="evenodd" clip-rule="evenodd" d="M39.9291 228.937C35.2582 228.934 31.4958 227.813 28.8669 225.8C26.2065 223.763 24.7952 220.871 24.7952 217.6C24.7952 214.448 26.2034 212.175 27.7968 210.638C29.0456 209.434 30.4236 208.663 31.3831 208.22C31.1661 207.554 30.8954 206.682 30.6532 205.782C30.3291 204.577 30.0112 203.163 30.0112 202.127C30.0112 200.901 30.2785 199.67 30.9993 198.713C31.7609 197.702 32.9073 197.16 34.2866 197.16C35.3645 197.16 36.2797 197.56 36.9961 198.25C37.681 198.909 38.1368 199.785 38.4515 200.698C39.0045 202.301 39.2198 204.316 39.2802 206.327H40.6013C40.6617 204.316 40.877 202.301 41.43 200.698C41.7447 199.785 42.2006 198.909 42.8854 198.25C43.6019 197.56 44.517 197.16 45.595 197.16C46.9742 197.16 48.1207 197.702 48.8822 198.713C49.603 199.67 49.8703 200.901 49.8703 202.127C49.8703 203.163 49.5524 204.577 49.2283 205.782C48.9861 206.682 48.7154 207.554 48.4984 208.22C49.458 208.663 50.836 209.434 52.0847 210.638C53.6781 212.175 55.0863 214.448 55.0863 217.6C55.0863 220.871 53.675 223.763 51.0146 225.8C48.3858 227.813 44.6233 228.934 39.9525 228.937H39.9291Z" fill="#633001"/>
<path d="M34.2865 198.326C32.2663 198.326 31.3364 199.849 31.3364 201.954C31.3364 203.628 32.4169 206.98 32.8602 208.284C32.9599 208.578 32.8032 208.899 32.5175 209.013C30.8985 209.658 26.1205 212.019 26.1205 217.427C26.1205 223.124 30.976 227.419 39.93 227.426C39.9335 227.426 39.9371 227.426 39.9407 227.426C39.9442 227.426 39.9478 227.426 39.9514 227.426C48.9053 227.419 53.7609 223.124 53.7609 217.427C53.7609 212.019 48.9829 209.658 47.3638 209.013C47.0781 208.899 46.9214 208.578 47.0211 208.284C47.4644 206.98 48.5449 203.628 48.5449 201.954C48.5449 199.849 47.615 198.326 45.5949 198.326C42.687 198.326 41.9621 202.488 41.9104 206.953C41.907 207.252 41.6684 207.494 41.3732 207.494H38.5081C38.2129 207.494 37.9744 207.252 37.9709 206.953C37.9192 202.488 37.1943 198.326 34.2865 198.326Z" fill="#D1884F"/>
<path d="M39.9514 225.601C33.3724 225.601 26.1318 222.043 26.1205 217.438C26.1205 217.445 26.1205 217.452 26.1205 217.46C26.1205 223.161 30.9837 227.458 39.9514 227.458C48.919 227.458 53.7822 223.161 53.7822 217.46C53.7822 217.452 53.7822 217.445 53.7822 217.438C53.7709 222.043 46.5303 225.601 39.9514 225.601Z" fill="#FEDC90"/>
<path d="M36.296 216.024C36.296 217.578 35.5686 218.388 34.6713 218.388C33.774 218.388 33.0467 217.578 33.0467 216.024C33.0467 214.469 33.774 213.659 34.6713 213.659C35.5686 213.659 36.296 214.469 36.296 216.024Z" fill="#633001"/>
<path d="M46.8561 216.024C46.8561 217.578 46.1287 218.388 45.2314 218.388C44.3342 218.388 43.6068 217.578 43.6068 216.024C43.6068 214.469 44.3342 213.659 45.2314 213.659C46.1287 213.659 46.8561 214.469 46.8561 216.024Z" fill="#633001"/>
<circle cx="211" cy="40" r="24" fill="url(#paint15_linear_612_2611)"/>
<path fill-rule="evenodd" clip-rule="evenodd" d="M194.903 22.1985L194.55 22.5245L196.443 24.8377L202.579 32.3812L203.079 33.0145C203.396 33.4524 203.276 33.8462 202.734 34.1548C202.432 34.3263 201.811 34.5003 201.501 34.5003C201.149 34.5003 200.753 34.331 200.465 34.0575C200.458 34.0513 200.451 34.044 200.443 34.0356L200.354 33.9296L200.227 33.7604L199.848 33.218L199.175 32.2078L194.846 25.5439L194.822 25.5208C194.818 25.5183 194.816 25.5195 194.819 25.5278L194.824 25.5426L194.877 25.6493L198.088 31.417L199.048 33.1669L199.381 33.8005L199.487 34.016L199.573 34.2093L199.593 34.269L199.6 34.306C199.6 34.5901 199.522 34.7394 199.172 35.1302L199.066 35.2535C198.556 35.8765 198.315 36.6089 198.138 38.0295L198.107 38.2582C197.871 39.839 197.258 41.0215 195.686 42.9819L195.393 43.3479L194.958 43.9029L194.733 44.2045L194.618 44.3702L194.523 44.5196L194.44 44.6629L194.321 44.8889C194.015 45.4991 193.931 45.8409 193.896 46.6113C193.86 47.4261 193.931 47.9523 194.179 48.7311C194.361 49.2994 194.549 49.7068 194.943 50.348L195.422 51.1079L195.607 51.4202L195.758 51.6975C195.913 51.9993 195.997 52.2229 195.997 52.3445L196 52.4069C196.009 52.4597 196.038 52.4838 196.134 52.4795L196.253 52.4658C196.277 52.4619 196.303 52.4573 196.332 52.4518L196.536 52.4098L197.153 52.2665C198.856 51.8358 200.234 51.1331 201.03 50.2841C201.556 49.7235 201.68 49.414 201.684 48.6457C201.684 48.5899 201.684 48.539 201.684 48.4922L201.676 48.2542C201.661 48.0527 201.623 47.9417 201.533 47.749C201.312 47.2786 200.909 46.8873 200.022 46.2809L199.812 46.1337C198.799 45.4055 198.355 44.7917 198.226 43.9668C198.127 43.3299 198.217 42.8585 198.681 41.8306L199.022 41.1007C199.576 39.9039 199.726 39.298 199.829 37.9924L199.846 37.7923C199.918 37.0293 200.021 36.7035 200.262 36.4381C200.534 36.1382 200.779 36.0366 201.453 35.9446L201.72 35.9042C202.667 35.7454 203.299 35.4662 203.826 34.9806C204.324 34.5211 204.533 34.0783 204.565 33.4118L204.589 32.9065L204.311 32.5815L204.111 32.3533L194.903 22.1985ZM195.476 46.7294C195.402 46.6773 195.368 46.6177 195.368 46.5413C195.368 46.2289 195.928 46.1159 196.289 46.3557C196.67 46.6095 196.792 47.129 196.563 47.5331C196.345 47.9202 195.928 48.047 195.633 47.8162C195.45 47.6731 195.437 47.4623 195.597 47.2226L195.643 47.1481C195.749 46.9605 195.717 46.8588 195.539 46.7672L195.476 46.7294Z" fill="#FF007A"/>
<path d="M203.432 25.4963C202.981 25.4264 202.962 25.4183 203.174 25.3856C203.58 25.3232 204.539 25.4084 205.2 25.5654C206.742 25.9321 208.146 26.8713 209.644 28.5394L210.042 28.9826L210.611 28.891C213.01 28.5055 215.451 28.8119 217.492 29.7548C218.053 30.0142 218.938 30.5306 219.049 30.6633C219.084 30.7056 219.149 30.9777 219.193 31.2682C219.344 32.2732 219.268 33.0435 218.961 33.6188C218.794 33.9318 218.785 34.0311 218.897 34.299C218.987 34.5128 219.237 34.671 219.485 34.6707C219.992 34.6701 220.538 33.8502 220.791 32.7092L220.891 32.2561L221.09 32.4816C222.182 33.7186 223.04 35.4056 223.187 36.6064L223.226 36.9195L223.042 36.6348C222.726 36.1451 222.409 35.8116 222.002 35.5427C221.27 35.0581 220.495 34.8931 218.444 34.785C216.591 34.6874 215.543 34.5291 214.503 34.1901C212.734 33.6133 211.842 32.8452 209.741 30.0882C208.808 28.8638 208.231 28.1862 207.657 27.6406C206.353 26.4009 205.072 25.7507 203.432 25.4963Z" fill="#FF007A"/>
<path d="M219.467 28.2303C219.513 27.4098 219.625 26.8686 219.849 26.3743C219.937 26.1787 220.02 26.0186 220.033 26.0186C220.046 26.0186 220.007 26.163 219.947 26.3395C219.785 26.8191 219.758 27.4753 219.87 28.2386C220.012 29.2071 220.093 29.3469 221.117 30.3931C221.597 30.8838 222.155 31.5028 222.358 31.7686L222.726 32.2517L222.358 31.9064C221.908 31.4842 220.872 30.6606 220.644 30.5429C220.49 30.464 220.468 30.4654 220.373 30.5595C220.286 30.6463 220.267 30.7765 220.255 31.3928C220.236 32.3533 220.106 32.9698 219.79 33.5863C219.619 33.9196 219.592 33.8485 219.746 33.4722C219.862 33.1912 219.874 33.0677 219.873 32.1379C219.871 30.2696 219.649 29.8205 218.348 29.0512C218.019 28.8563 217.476 28.5752 217.142 28.4265C216.808 28.2778 216.543 28.1483 216.552 28.1386C216.589 28.1019 217.858 28.4722 218.368 28.6686C219.127 28.9607 219.253 28.9986 219.345 28.9634C219.407 28.9397 219.437 28.7596 219.467 28.2303Z" fill="#FF007A"/>
<path d="M204.306 31.4263C203.392 30.1679 202.827 28.2385 202.949 26.7962L202.987 26.3499L203.195 26.3878C203.586 26.459 204.259 26.7099 204.575 26.9014C205.441 27.4272 205.815 28.1193 206.197 29.8968C206.308 30.4174 206.455 31.0065 206.522 31.206C206.631 31.5271 207.041 32.277 207.374 32.764C207.615 33.1148 207.455 33.281 206.924 33.233C206.113 33.1599 205.015 32.4018 204.306 31.4263Z" fill="#FF007A"/>
<path d="M218.358 40.7921C214.087 39.0721 212.582 37.5792 212.582 35.0603C212.582 34.6897 212.595 34.3863 212.61 34.3863C212.626 34.3863 212.791 34.5086 212.978 34.6582C213.844 35.3529 214.814 35.6497 217.499 36.0415C219.079 36.272 219.969 36.4582 220.789 36.7302C223.396 37.5949 225.009 39.3496 225.394 41.7397C225.506 42.4342 225.44 43.7366 225.259 44.4229C225.116 44.965 224.679 45.9422 224.563 45.9798C224.531 45.9901 224.5 45.8671 224.491 45.6997C224.448 44.8022 223.994 43.9285 223.232 43.2739C222.366 42.5298 221.203 41.9374 218.358 40.7921Z" fill="#FF007A"/>
<path d="M215.359 41.5066C215.306 41.1881 215.213 40.7814 215.153 40.6028L215.044 40.278L215.246 40.5053C215.527 40.8197 215.748 41.2221 215.936 41.758C216.079 42.1671 216.095 42.2887 216.094 42.9534C216.093 43.606 216.075 43.7428 215.943 44.1109C215.734 44.6915 215.475 45.1032 215.041 45.5451C214.261 46.3392 213.258 46.7789 211.81 46.9613C211.558 46.9929 210.825 47.0464 210.18 47.0798C208.555 47.1644 207.486 47.3389 206.524 47.6764C206.386 47.725 206.263 47.7545 206.25 47.7419C206.212 47.7032 206.866 47.3132 207.406 47.0529C208.168 46.6858 208.927 46.4854 210.627 46.2024C211.466 46.0626 212.333 45.893 212.553 45.8254C214.633 45.1879 215.701 43.5429 215.359 41.5066Z" fill="#FF007A"/>
<path d="M217.317 44.9843C216.75 43.7642 216.62 42.5861 216.931 41.4876C216.964 41.3703 217.017 41.2742 217.05 41.2742C217.082 41.2742 217.216 41.3465 217.347 41.4351C217.609 41.6111 218.133 41.9076 219.531 42.6695C221.274 43.6202 222.269 44.3564 222.945 45.1976C223.537 45.9342 223.903 46.7731 224.08 47.7961C224.18 48.3756 224.121 49.77 223.972 50.3535C223.504 52.1934 222.414 53.6387 220.86 54.4819C220.632 54.6054 220.427 54.7069 220.405 54.7074C220.383 54.7078 220.466 54.4968 220.59 54.2385C221.113 53.1456 221.172 52.0825 220.777 50.8992C220.535 50.1746 220.041 49.2906 219.045 47.7963C217.886 46.0591 217.602 45.5968 217.317 44.9843Z" fill="#FF007A"/>
<path d="M201.273 51.5671C202.858 50.2286 204.83 49.2778 206.627 48.986C207.401 48.8601 208.691 48.91 209.408 49.0936C210.557 49.3877 211.585 50.0465 212.12 50.8313C212.643 51.5985 212.867 52.2668 213.1 53.7541C213.192 54.3409 213.292 54.93 213.323 55.0634C213.498 55.8342 213.839 56.4504 214.262 56.7598C214.933 57.2511 216.089 57.2818 217.226 56.8381C217.419 56.7629 217.587 56.7108 217.599 56.7226C217.64 56.7636 217.067 57.1469 216.663 57.3487C216.12 57.6202 215.687 57.7252 215.113 57.7252C214.072 57.7252 213.207 57.1953 212.485 56.115C212.343 55.9024 212.024 55.2654 211.776 54.6998C211.014 52.9621 210.638 52.4329 209.754 51.8535C208.984 51.3495 207.991 51.2592 207.244 51.6254C206.263 52.1064 205.989 53.36 206.692 54.1546C206.971 54.4703 207.492 54.7427 207.918 54.7956C208.715 54.8947 209.399 54.2887 209.399 53.4843C209.399 52.9621 209.198 52.664 208.693 52.436C208.003 52.1246 207.261 52.4886 207.265 53.137C207.266 53.4135 207.387 53.5871 207.664 53.7124C207.841 53.7929 207.846 53.7992 207.701 53.7692C207.067 53.6379 206.919 52.8744 207.428 52.3676C208.039 51.7592 209.304 52.0277 209.738 52.8581C209.92 53.207 209.941 53.9018 209.782 54.3212C209.426 55.2602 208.389 55.7539 207.336 55.4853C206.62 55.3023 206.328 55.1042 205.464 54.2143C203.963 52.6679 203.38 52.3682 201.215 52.0302L200.801 51.9656L201.273 51.5671Z" fill="#FF007A"/>
<path fill-rule="evenodd" clip-rule="evenodd" d="M205.283 36.2096C204.767 36.3679 204.266 36.9145 204.111 37.4874C204.016 37.8371 204.07 38.4502 204.211 38.6396C204.44 38.9455 204.662 39.0261 205.262 39.0218C206.436 39.0136 207.457 38.51 207.575 37.8805C207.673 37.3644 207.224 36.6492 206.607 36.3352C206.288 36.1733 205.61 36.109 205.283 36.2096ZM206.655 37.283C206.836 37.0257 206.757 36.7476 206.449 36.5596C205.863 36.2015 204.976 36.4977 204.976 37.0518C204.976 37.3276 205.438 37.6285 205.862 37.6285C206.144 37.6285 206.531 37.4603 206.655 37.283Z" fill="#FF007A"/>
<circle cx="91" cy="264" r="24" fill="#2775CA"/>
<path d="M87.0889 278.259C87.0889 278.781 86.7333 278.955 86.2 278.955C79.6222 276.868 75 270.956 75 264C75 257.044 79.6222 251.132 86.2 249.045C86.7333 248.871 87.0889 249.219 87.0889 249.741V250.958C87.0889 251.306 86.9111 251.654 86.5556 251.828C81.4 253.74 77.8444 258.435 77.8444 264C77.8444 269.565 81.5778 274.434 86.5556 276.172C86.9111 276.346 87.0889 276.694 87.0889 277.042V278.259Z" fill="white"/>
<path d="M92.4222 273.912C92.4222 274.26 92.0667 274.607 91.7111 274.607H90.2889C89.9333 274.607 89.5778 274.26 89.5778 273.912V271.825C86.7333 271.477 85.3111 269.912 84.7778 267.652C84.7778 267.304 84.9555 266.956 85.3111 266.956H86.9111C87.2667 266.956 87.4444 267.13 87.6222 267.478C87.9778 268.695 88.6889 269.738 91 269.738C92.7778 269.738 94.0222 268.869 94.0222 267.478C94.0222 266.087 93.3111 265.565 90.8222 265.217C87.0889 264.696 85.3111 263.652 85.3111 260.696C85.3111 258.435 87.0889 256.697 89.5778 256.349V254.262C89.5778 253.914 89.9333 253.566 90.2889 253.566H91.7111C92.0667 253.566 92.4222 253.914 92.4222 254.262V256.349C94.5555 256.697 95.9778 257.914 96.3333 259.827C96.3333 260.174 96.1555 260.522 95.8 260.522H94.3778C94.0222 260.522 93.8444 260.348 93.6667 260C93.3111 258.783 92.4222 258.262 90.8222 258.262C89.0444 258.262 88.1555 259.131 88.1555 260.348C88.1555 261.566 88.6889 262.261 91.3555 262.609C95.0889 263.131 96.8667 264.174 96.8667 267.13C96.8667 269.391 95.0889 271.304 92.4222 271.825V273.912V273.912Z" fill="white"/>
<path d="M95.8 278.955C95.2667 279.129 94.9111 278.781 94.9111 278.259V277.042C94.9111 276.694 95.0889 276.346 95.4445 276.172C100.6 274.26 104.156 269.565 104.156 264C104.156 258.435 100.422 253.566 95.4445 251.828C95.0889 251.654 94.9111 251.306 94.9111 250.958V249.741C94.9111 249.219 95.2667 249.045 95.8 249.045C102.2 251.132 107 257.044 107 264C107 270.956 102.378 276.868 95.8 278.955Z" fill="white"/>
<circle cx="151" cy="280" r="24" fill="#EDEFF1"/>
<path d="M141 280.297L150.997 286.102V275.833V264L141 280.297Z" fill="#898989"/>
<path d="M150.997 264V275.833V286.102L160.994 280.297L150.997 264Z" fill="#323232"/>
<path d="M151 275.834L160.994 280.297L151 286.101V275.834Z" fill="#141414"/>
<path d="M150.997 275.833L151 275.834V286.1L150.997 286.103L141 280.297L150.997 275.833Z" fill="#373737"/>
<path d="M141 282.159L150.997 296V287.962L141 282.159Z" fill="#898989"/>
<path d="M150.997 287.962V296L161 282.159L150.997 287.962Z" fill="#323232"/>
<path d="M114.282 45.8059C111.076 58.663 98.0522 66.4877 85.192 63.2815C72.3372 60.076 64.5116 47.0531 67.7189 34.1968C70.9233 21.3381 83.9469 13.5127 96.8033 16.7182C109.663 19.9237 117.487 32.948 114.282 45.8059Z" fill="#F7931A"/>
<path fill-rule="evenodd" clip-rule="evenodd" d="M101.937 36.8646C102.437 33.5022 99.8951 31.6946 96.4198 30.4888L97.5471 25.9339L94.7947 25.2429L93.6971 29.6778C92.9735 29.4961 92.2303 29.3248 91.4919 29.155L92.5972 24.691L89.8463 24L88.7182 28.5533C88.1193 28.4159 87.5313 28.28 86.9606 28.1371L86.9637 28.1229L83.1678 27.1682L82.4356 30.1295C82.4356 30.1295 84.4778 30.6009 84.4347 30.6301C85.5495 30.9104 85.751 31.6535 85.7173 32.2426L84.4331 37.4316C84.51 37.4513 84.6095 37.4798 84.7193 37.524L84.626 37.5005L84.6258 37.5005C84.562 37.4844 84.4959 37.4677 84.4284 37.4513L82.6285 44.7203C82.4921 45.0614 82.1463 45.5731 81.3671 45.3789C81.3945 45.4191 79.3664 44.8758 79.3664 44.8758L78 48.0496L81.5819 48.949C81.9819 49.05 82.3772 49.1538 82.7683 49.2565C83.0287 49.3249 83.2872 49.3928 83.5441 49.4591L82.405 54.0661L85.1544 54.7571L86.2825 50.199C87.0335 50.4044 87.7626 50.5939 88.476 50.7724L87.3518 55.309L90.1043 56L91.2433 51.4017C95.9369 52.2964 99.4663 51.9355 100.952 47.6595C102.149 44.2165 100.892 42.2304 98.4228 40.9354C100.221 40.5176 101.576 39.326 101.937 36.8646ZM95.6484 45.7476C94.868 48.9064 89.9595 47.6005 87.7136 47.003L87.7134 47.0029C87.5114 46.9492 87.3309 46.9012 87.177 46.8627L88.6884 40.7593C88.876 40.8064 89.1051 40.8582 89.3647 40.9169L89.3647 40.9169C91.6876 41.4419 96.448 42.5179 95.6484 45.7476ZM89.8314 38.0845C91.7039 38.5878 95.7883 39.6858 96.4998 36.8148C97.2263 33.8783 93.2566 32.9931 91.3178 32.5608C91.0997 32.5121 90.9074 32.4692 90.7502 32.4298L89.3799 37.9654C89.5093 37.9979 89.6612 38.0387 89.8314 38.0845Z" fill="white"/>
<defs>
<linearGradient id="paint0_linear_612_2611" x1="254.444" y1="104.537" x2="273.998" y2="104.537" gradientUnits="userSpaceOnUse">
<stop offset="0.00188079" stop-color="#FCC33C"/>
<stop offset="1" stop-color="#FFEE50"/>
</linearGradient>
<linearGradient id="paint1_linear_612_2611" x1="273.998" y1="84.8462" x2="269.109" y2="84.8462" gradientUnits="userSpaceOnUse">
<stop stop-color="#FB9828"/>
<stop offset="1" stop-color="#F96C13"/>
</linearGradient>
<linearGradient id="paint2_linear_612_2611" x1="270.027" y1="78.6922" x2="257.805" y2="78.6922" gradientUnits="userSpaceOnUse">
<stop stop-color="#F84200"/>
<stop offset="1" stop-color="#F96C13"/>
</linearGradient>
<linearGradient id="paint3_linear_612_2611" x1="250.708" y1="78.9696" x2="258" y2="83.6212" gradientUnits="userSpaceOnUse">
<stop stop-color="#F96C13"/>
<stop offset="1" stop-color="#FB9828"/>
</linearGradient>
<linearGradient id="paint4_linear_612_2611" x1="259.944" y1="102.078" x2="265.443" y2="102.078" gradientUnits="userSpaceOnUse">
<stop stop-color="#F84200"/>
<stop offset="1" stop-color="#F96C13"/>
</linearGradient>
<linearGradient id="paint5_linear_612_2611" x1="254.444" y1="87.3088" x2="261.777" y2="87.3088" gradientUnits="userSpaceOnUse">
<stop stop-color="#F84200"/>
<stop offset="1" stop-color="#F96C13"/>
</linearGradient>
<linearGradient id="paint6_linear_612_2611" x1="265.222" y1="92.5955" x2="259.071" y2="86.4869" gradientUnits="userSpaceOnUse">
<stop stop-color="#F96C13"/>
<stop offset="1" stop-color="#FB9828"/>
</linearGradient>
<linearGradient id="paint7_linear_612_2611" x1="263.035" y1="100.056" x2="258.876" y2="95.9088" gradientUnits="userSpaceOnUse">
<stop stop-color="#FB9828"/>
<stop offset="1" stop-color="#F96C13"/>
</linearGradient>
<linearGradient id="paint8_linear_612_2611" x1="267.311" y1="104.978" x2="263.151" y2="100.836" gradientUnits="userSpaceOnUse">
<stop stop-color="#F96C13"/>
<stop offset="1" stop-color="#FB9828"/>
</linearGradient>
<linearGradient id="paint9_linear_612_2611" x1="273.775" y1="95.4206" x2="262.055" y2="91.7085" gradientUnits="userSpaceOnUse">
<stop stop-color="#F96C13"/>
<stop offset="1" stop-color="#F84200"/>
</linearGradient>
<linearGradient id="paint10_linear_612_2611" x1="271.374" y1="81.9824" x2="269.067" y2="79.6933" gradientUnits="userSpaceOnUse">
<stop stop-color="#F84200"/>
<stop offset="1" stop-color="#F96C13"/>
</linearGradient>
<linearGradient id="paint11_linear_612_2611" x1="265.246" y1="106.689" x2="272.549" y2="106.689" gradientUnits="userSpaceOnUse">
<stop stop-color="#F84200"/>
<stop offset="1" stop-color="#F96C13"/>
</linearGradient>
<linearGradient id="paint12_linear_612_2611" x1="256" y1="128" x2="256" y2="176" gradientUnits="userSpaceOnUse">
<stop stop-color="#534BB1"/>
<stop offset="1" stop-color="#551BF9"/>
</linearGradient>
<linearGradient id="paint13_linear_612_2611" x1="261.617" y1="136.681" x2="261.617" y2="168.34" gradientUnits="userSpaceOnUse">
<stop stop-color="white"/>
<stop offset="1" stop-color="white" stop-opacity="0.82"/>
</linearGradient>
<linearGradient id="paint14_linear_612_2611" x1="16" y1="189" x2="16" y2="237" gradientUnits="userSpaceOnUse">
<stop stop-color="#53DEE9"/>
<stop offset="1" stop-color="#1FC7D4"/>
</linearGradient>
<linearGradient id="paint15_linear_612_2611" x1="211" y1="88" x2="259" y2="40" gradientUnits="userSpaceOnUse">
<stop stop-color="#FEF4F9"/>
<stop offset="1" stop-color="#FFD9E8"/>
</linearGradient>
</defs>
</svg>
