<svg width="48" height="48" viewBox="0 0 48 48" fill="none" xmlns="http://www.w3.org/2000/svg">
<circle cx="24" cy="24" r="24" fill="url(#paint0_linear_610_1115)"/>
<path fill-rule="evenodd" clip-rule="evenodd" d="M23.9291 39.9374C19.2582 39.9339 15.4958 38.8131 12.8669 36.7999C10.2065 34.7626 8.79515 31.8714 8.79515 28.6C8.79515 25.4478 10.2034 23.1748 11.7968 21.6384C13.0456 20.4344 14.4236 19.6632 15.3831 19.2197C15.1661 18.5538 14.8954 17.682 14.6532 16.7816C14.3291 15.5767 14.0112 14.163 14.0112 13.1271C14.0112 11.901 14.2785 10.6696 14.9993 9.71273C15.7609 8.70183 16.9073 8.16028 18.2866 8.16028C19.3645 8.16028 20.2797 8.56008 20.9961 9.24988C21.681 9.90918 22.1368 10.7848 22.4515 11.6976C23.0045 13.3014 23.2198 15.3165 23.2802 17.3274H24.6013C24.6617 15.3165 24.877 13.3014 25.43 11.6976C25.7447 10.7848 26.2006 9.90918 26.8854 9.24988C27.6019 8.56008 28.517 8.16028 29.595 8.16028C30.9742 8.16028 32.1207 8.70183 32.8822 9.71273C33.603 10.6696 33.8703 11.901 33.8703 13.1271C33.8703 14.163 33.5524 15.5767 33.2283 16.7816C32.9861 17.682 32.7154 18.5538 32.4984 19.2197C33.458 19.6632 34.836 20.4344 36.0847 21.6384C37.6781 23.1748 39.0863 25.4478 39.0863 28.6C39.0863 31.8714 37.675 34.7626 35.0146 36.7999C32.3858 38.8131 28.6233 39.9339 23.9525 39.9374H23.9291Z" fill="#633001"/>
<path d="M18.2865 9.32635C16.2663 9.32635 15.3364 10.8488 15.3364 12.9544C15.3364 14.6279 16.4169 17.9797 16.8602 19.2845C16.9599 19.5779 16.8032 19.8995 16.5175 20.0133C14.8985 20.6582 10.1205 23.0195 10.1205 28.4273C10.1205 34.1238 14.976 38.419 23.93 38.4258C23.9335 38.4258 23.9371 38.4258 23.9407 38.4258C23.9442 38.4258 23.9478 38.4258 23.9514 38.4258C32.9053 38.419 37.7609 34.1238 37.7609 28.4273C37.7609 23.0195 32.9829 20.6582 31.3638 20.0133C31.0781 19.8995 30.9214 19.5779 31.0211 19.2845C31.4644 17.9797 32.5449 14.6279 32.5449 12.9544C32.5449 10.8488 31.615 9.32635 29.5949 9.32635C26.687 9.32635 25.9621 13.4875 25.9104 17.9535C25.907 18.2516 25.6684 18.4935 25.3732 18.4935H22.5081C22.2129 18.4935 21.9744 18.2516 21.9709 17.9535C21.9192 13.4875 21.1943 9.32635 18.2865 9.32635Z" fill="#D1884F"/>
<path d="M23.9514 36.6009C17.3724 36.6009 10.1318 33.0433 10.1205 28.438C10.1205 28.4452 10.1205 28.4524 10.1205 28.4596C10.1205 34.1607 14.9837 38.4581 23.9514 38.4581C32.919 38.4581 37.7822 34.1607 37.7822 28.4596C37.7822 28.4524 37.7822 28.4452 37.7822 28.438C37.7709 33.0433 30.5303 36.6009 23.9514 36.6009Z" fill="#FEDC90"/>
<path d="M20.2959 27.0236C20.2959 28.5784 19.5685 29.3882 18.6713 29.3882C17.774 29.3882 17.0466 28.5784 17.0466 27.0236C17.0466 25.4687 17.774 24.6589 18.6713 24.6589C19.5685 24.6589 20.2959 25.4687 20.2959 27.0236Z" fill="#633001"/>
<path d="M30.8561 27.0236C30.8561 28.5784 30.1287 29.3882 29.2314 29.3882C28.3342 29.3882 27.6068 28.5784 27.6068 27.0236C27.6068 25.4687 28.3342 24.6589 29.2314 24.6589C30.1287 24.6589 30.8561 25.4687 30.8561 27.0236Z" fill="#633001"/>
<defs>
<linearGradient id="paint0_linear_610_1115" x1="0" y1="0" x2="0" y2="48" gradientUnits="userSpaceOnUse">
<stop stop-color="#53DEE9"/>
<stop offset="1" stop-color="#1FC7D4"/>
</linearGradient>
</defs>
</svg>
