<svg width="48" height="48" viewBox="0 0 48 48" fill="none" xmlns="http://www.w3.org/2000/svg">
<circle cx="24" cy="24" r="24" fill="url(#paint0_linear_610_1105)"/>
<path fill-rule="evenodd" clip-rule="evenodd" d="M41.1814 24.2924H36.9505C36.9505 15.6702 29.9365 8.68085 21.2835 8.68085C12.7377 8.68085 5.78988 15.4991 5.61983 23.9736C5.44391 32.7336 13.6916 40.3405 22.4839 40.3405H23.5899C31.3413 40.3405 41.7306 34.294 43.3539 26.9269C43.6536 25.5689 42.5771 24.2924 41.1814 24.2924ZM14.9962 24.6765C14.9962 25.8295 14.0498 26.7726 12.8926 26.7726C11.7355 26.7726 10.7891 25.8291 10.7891 24.6765V21.2856C10.7891 20.1326 11.7355 19.1896 12.8926 19.1896C14.0498 19.1896 14.9962 20.1326 14.9962 21.2856V24.6765ZM20.197 26.7726C21.3541 26.7726 22.3004 25.8295 22.3004 24.6765V21.2856C22.3004 20.1326 21.3541 19.1896 20.197 19.1896C19.0402 19.1896 18.0934 20.1326 18.0934 21.2856V24.6765C18.0934 25.8291 19.0398 26.7726 20.197 26.7726Z" fill="url(#paint1_linear_610_1105)"/>
<defs>
<linearGradient id="paint0_linear_610_1105" x1="0" y1="0" x2="0" y2="48" gradientUnits="userSpaceOnUse">
<stop stop-color="#534BB1"/>
<stop offset="1" stop-color="#551BF9"/>
</linearGradient>
<linearGradient id="paint1_linear_610_1105" x1="5.61701" y1="8.68085" x2="5.61701" y2="40.3405" gradientUnits="userSpaceOnUse">
<stop stop-color="white"/>
<stop offset="1" stop-color="white" stop-opacity="0.82"/>
</linearGradient>
</defs>
</svg>
