<svg width="48" height="48" viewBox="0 0 48 48" fill="none" xmlns="http://www.w3.org/2000/svg">
<circle cx="24" cy="24" r="24" fill="#2775CA"/>
<path d="M20.0889 38.2592C20.0889 38.7809 19.7333 38.9548 19.2 38.9548C12.6222 36.8681 8 30.9557 8 24C8 17.0443 12.6222 11.1319 19.2 9.04523C19.7333 8.87134 20.0889 9.21913 20.0889 9.74081V10.9581C20.0889 11.3058 19.9111 11.6536 19.5556 11.8275C14.4 13.7403 10.8444 18.4354 10.8444 24C10.8444 29.5646 14.5778 34.4336 19.5556 36.1725C19.9111 36.3464 20.0889 36.6942 20.0889 37.0419V38.2592Z" fill="white"/>
<path d="M25.4222 33.9119C25.4222 34.2597 25.0667 34.6075 24.7111 34.6075H23.2889C22.9333 34.6075 22.5778 34.2597 22.5778 33.9119V31.8252C19.7333 31.4774 18.3111 29.9124 17.7778 27.6518C17.7778 27.304 17.9555 26.9562 18.3111 26.9562H19.9111C20.2667 26.9562 20.4444 27.1301 20.6222 27.4779C20.9778 28.6951 21.6889 29.7385 24 29.7385C25.7778 29.7385 27.0222 28.869 27.0222 27.4779C27.0222 26.0867 26.3111 25.5651 23.8222 25.2173C20.0889 24.6956 18.3111 23.6522 18.3111 20.6961C18.3111 18.4355 20.0889 16.6965 22.5778 16.3487V14.262C22.5778 13.9143 22.9333 13.5665 23.2889 13.5665H24.7111C25.0667 13.5665 25.4222 13.9143 25.4222 14.262V16.3487C27.5555 16.6965 28.9778 17.9138 29.3333 19.8266C29.3333 20.1744 29.1555 20.5222 28.8 20.5222H27.3778C27.0222 20.5222 26.8444 20.3483 26.6667 20.0005C26.3111 18.7832 25.4222 18.2616 23.8222 18.2616C22.0444 18.2616 21.1555 19.131 21.1555 20.3483C21.1555 21.5655 21.6889 22.2611 24.3555 22.6089C28.0889 23.1306 29.8667 24.1739 29.8667 27.1301C29.8667 29.3907 28.0889 31.3035 25.4222 31.8252V33.9119V33.9119Z" fill="white"/>
<path d="M28.8 38.9548C28.2667 39.1287 27.9111 38.7809 27.9111 38.2592V37.0419C27.9111 36.6942 28.0889 36.3464 28.4444 36.1725C33.6 34.2597 37.1555 29.5646 37.1555 24C37.1555 18.4354 33.4222 13.5664 28.4444 11.8275C28.0889 11.6536 27.9111 11.3058 27.9111 10.958V9.7408C27.9111 9.21912 28.2667 9.04523 28.8 9.04523C35.2 11.1319 40 17.0443 40 24C40 30.9557 35.3778 36.868 28.8 38.9548Z" fill="white"/>
</svg>
