<svg width="180" height="180" viewBox="0 0 180 180" fill="none" xmlns="http://www.w3.org/2000/svg">
<path d="M57.0765 86.5761C67.6468 90.2914 78.7979 92.08 89.9999 91.8567C101.202 92.0786 112.353 90.2885 122.923 86.5717C131.174 83.3537 134.1 79.7772 134.1 77.7189V61.9831C131.215 63.9149 128.121 65.5127 124.875 66.7459C113.692 70.7505 101.877 72.7028 89.9999 72.5091C78.1237 72.6992 66.3102 70.75 55.1245 66.7548C51.8776 65.5215 48.7826 63.9205 45.8999 61.9831V77.6968C45.8999 79.7949 48.8346 83.3537 57.0765 86.5761Z" fill="#FFDA44"/>
<path d="M57.0765 116.255C60.8106 117.679 64.6613 118.776 68.5851 119.535C75.6409 120.9 82.8133 121.571 89.9999 121.54C97.1863 121.573 104.359 120.903 111.415 119.539C115.339 118.781 119.189 117.683 122.923 116.259C131.174 113.041 134.1 109.465 134.1 107.407V92.4012C131.715 93.836 129.209 95.058 126.61 96.053C114.862 100.213 102.461 102.226 89.9999 101.998C77.5374 102.219 65.1366 100.198 53.3893 96.0309C50.7916 95.0333 48.2856 93.8114 45.8999 92.3791V107.398C45.8999 109.46 48.8346 113.024 57.0765 116.255Z" fill="#FFDA44"/>
<path d="M89.9999 151.839C114.345 151.839 134.1 144.119 134.1 134.602V122.045C131.931 123.352 129.658 124.48 127.305 125.418L126.61 125.696C114.864 129.868 102.463 131.894 89.9999 131.676C77.5361 131.9 65.1341 129.875 53.3893 125.696C53.1503 125.608 52.9201 125.506 52.6944 125.418C50.3414 124.48 48.069 123.352 45.8999 122.045V134.602C45.8999 144.119 65.6548 151.839 89.9999 151.839Z" fill="#FFDA44"/>
<path d="M89.9999 62.3726C114.356 62.3726 134.1 54.6557 134.1 45.1363C134.1 35.617 114.356 27.9 89.9999 27.9C65.6441 27.9 45.8999 35.617 45.8999 45.1363C45.8999 54.6557 65.6441 62.3726 89.9999 62.3726Z" fill="#FFDA44"/>
</svg>
