<svg width="109" height="109" viewBox="0 0 109 109" fill="none" xmlns="http://www.w3.org/2000/svg">
<path d="M106.839 49.5988L59.2993 2.05878C58.649 1.40622 57.8762 0.888444 57.0254 0.535152C56.1746 0.18186 55.2624 0 54.3411 0C53.4199 0 52.5076 0.18186 51.6568 0.535152C50.806 0.888444 50.0333 1.40622 49.383 2.05878L39.5094 11.9323L52.0312 24.4541C53.5078 23.9516 55.0958 23.874 56.6144 24.2301C58.1329 24.5862 59.5209 25.3617 60.6202 26.4683C61.7194 27.5748 62.4858 28.9679 62.8318 30.4888C63.1779 32.0097 63.0897 33.5972 62.5775 35.0704L74.6326 47.1255C76.4346 46.5065 78.3942 46.5236 80.1851 47.1741C81.976 47.8245 83.4899 49.069 84.4746 50.7001C85.4593 52.3312 85.8553 54.2505 85.5967 56.1382C85.338 58.0259 84.4404 59.768 83.0532 61.0742C81.6661 62.3803 79.8732 63.1717 77.9734 63.3165C76.0736 63.4613 74.1816 62.9507 72.6125 61.8698C71.0435 60.7889 69.8922 59.203 69.3505 57.3763C68.8088 55.5496 68.9094 53.5924 69.6356 51.8309L58.3776 40.573V70.1936C60.083 71.0386 61.4474 72.4423 62.2436 74.171C63.0398 75.8997 63.2197 77.849 62.7533 79.6942C62.2869 81.5394 61.2024 83.1691 59.6804 84.3119C58.1585 85.4546 56.2909 86.0415 54.3889 85.9746C52.4868 85.9078 50.6651 85.1913 49.2271 83.9445C47.7891 82.6977 46.8217 80.9958 46.486 79.1224C46.1503 77.249 46.4666 75.3172 47.3822 73.6487C48.2978 71.9801 49.7574 70.6756 51.5179 69.9525V40.0597C50.4994 39.6418 49.5736 39.0265 48.794 38.2493C48.0143 37.4721 47.3961 36.5483 46.975 35.5312C46.5539 34.514 46.3382 33.4236 46.3403 32.3227C46.3425 31.2218 46.5624 30.1322 46.9875 29.1167L34.6601 16.7816L2.06073 49.3927C1.40759 50.043 0.889318 50.816 0.535681 51.6672C0.182044 52.5184 0 53.431 0 54.3528C0 55.2745 0.182044 56.1872 0.535681 57.0384C0.889318 57.8895 1.40759 58.6625 2.06073 59.3129L49.6007 106.837C50.251 107.49 51.0238 108.008 51.8746 108.361C52.7254 108.714 53.6376 108.896 54.5589 108.896C55.4802 108.896 56.3924 108.714 57.2432 108.361C58.094 108.008 58.8667 107.49 59.517 106.837L106.839 59.5034C107.492 58.8531 108.011 58.0801 108.364 57.2289C108.718 56.3777 108.9 55.4651 108.9 54.5433C108.9 53.6216 108.718 52.7089 108.364 51.8578C108.011 51.0066 107.492 50.2336 106.839 49.5832" fill="#DD4C35"/>
<path d="M39.5094 11.9323L52.0312 24.4541C53.5078 23.9516 55.0958 23.874 56.6144 24.2301C58.133 24.5862 59.5209 25.3617 60.6202 26.4683C61.7195 27.5748 62.4858 28.9679 62.8318 30.4888C63.1779 32.0097 63.0898 33.5972 62.5775 35.0704L74.6326 47.1255C76.4346 46.5065 78.3943 46.5236 80.1851 47.174C81.976 47.8245 83.4899 49.0689 84.4746 50.7001C85.4593 52.3312 85.8553 54.2505 85.5967 56.1382C85.3381 58.0259 84.4404 59.768 83.0532 61.0741C81.6661 62.3803 79.8733 63.1717 77.9735 63.3165C76.0736 63.4613 74.1816 62.9507 72.6125 61.8698C71.0435 60.7889 69.8922 59.203 69.3505 57.3763C68.8088 55.5496 68.9094 53.5924 69.6356 51.8309L58.3777 40.573V70.1936C60.083 71.0386 61.4475 72.4423 62.2436 74.171C63.0398 75.8997 63.2197 77.849 62.7533 79.6942C62.2869 81.5394 61.2024 83.1691 59.6804 84.3119C58.1585 85.4546 56.2909 86.0415 54.3889 85.9746C52.4868 85.9078 50.6651 85.1913 49.2271 83.9445C47.7891 82.6977 46.8217 80.9958 46.486 79.1224C46.1503 77.249 46.4666 75.3172 47.3822 73.6486C48.2978 71.9801 49.7574 70.6756 51.5179 69.9525V40.0597C50.4994 39.6418 49.5737 39.0265 48.794 38.2493C48.0143 37.4721 47.3961 36.5483 46.975 35.5312C46.5539 34.514 46.3382 33.4236 46.3403 32.3227C46.3425 31.2218 46.5624 30.1322 46.9875 29.1167L34.6602 16.7816" fill="white"/>
</svg>
