<svg width="180" height="180" viewBox="0 0 180 180" fill="none" xmlns="http://www.w3.org/2000/svg">
<path d="M36.8999 36.9H143.1V143.1H36.8999V36.9Z" fill="#F5DE19"/>
<path d="M108.24 119.869C109.145 121.707 110.55 123.252 112.295 124.325C114.04 125.399 116.053 125.958 118.101 125.937C122.235 125.937 124.879 123.87 124.879 121.007C124.879 117.593 122.163 116.372 117.612 114.38L115.116 113.311C107.91 110.242 103.131 106.4 103.131 98.276C103.131 90.7927 108.82 85.092 117.745 85.092C120.634 84.8834 123.52 85.53 126.044 86.9511C128.568 88.3723 130.618 90.5051 131.938 93.0836L124.136 98.0712C123.627 96.7927 122.743 95.6989 121.599 94.9348C120.454 94.1707 119.105 93.7724 117.729 93.7928C117.129 93.7327 116.523 93.7983 115.95 93.9854C115.376 94.1725 114.848 94.477 114.399 94.8795C113.95 95.282 113.589 95.7737 113.34 96.3232C113.092 96.8727 112.96 97.468 112.954 98.0712C112.954 101.064 114.809 102.277 119.091 104.14L121.587 105.209C130.068 108.847 134.862 112.552 134.862 120.885C134.862 129.87 127.803 134.794 118.325 134.794C114.632 135.029 110.95 134.19 107.722 132.379C104.495 130.568 101.861 127.862 100.138 124.587L108.24 119.869ZM72.9851 120.733C74.5516 123.514 75.9777 125.865 79.4064 125.865C82.6835 125.865 84.7544 124.583 84.7544 119.596V85.6609H94.7334V119.728C94.7334 130.06 88.6648 134.763 79.8312 134.763C76.7088 134.934 73.6077 134.156 70.9358 132.531C68.2639 130.906 66.1461 128.511 64.8608 125.66L72.9851 120.733Z" fill="black"/>
</svg>
