<svg width="180" height="180" viewBox="0 0 180 180" fill="none" xmlns="http://www.w3.org/2000/svg">
<path d="M131.09 47.2503L95.4626 73.969L102.088 58.2228L131.09 47.2503Z" fill="#E17726" stroke="#E17726" stroke-width="0.25" stroke-linecap="round" stroke-linejoin="round"/>
<path d="M48.9109 47.2503L84.221 74.2184L77.9132 58.2228L48.9109 47.2503Z" fill="#E27625" stroke="#E27625" stroke-width="0.25" stroke-linecap="round" stroke-linejoin="round"/>
<path d="M118.262 109.202L108.782 123.879L129.08 129.544L134.895 109.523L118.262 109.202Z" fill="#E27625" stroke="#E27625" stroke-width="0.25" stroke-linecap="round" stroke-linejoin="round"/>
<path d="M45.1401 109.523L50.9194 129.544L71.1823 123.879L61.738 109.202L45.1401 109.523Z" fill="#E27625" stroke="#E27625" stroke-width="0.25" stroke-linecap="round" stroke-linejoin="round"/>
<path d="M70.0897 84.4071L64.4514 93.0284L84.538 93.9547L83.8685 72.0453L70.0897 84.4071Z" fill="#E27625" stroke="#E27625" stroke-width="0.25" stroke-linecap="round" stroke-linejoin="round"/>
<path d="M109.91 84.4074L95.9203 71.7962L95.4622 93.9549L115.549 93.0287L109.91 84.4074Z" fill="#E27625" stroke="#E27625" stroke-width="0.25" stroke-linecap="round" stroke-linejoin="round"/>
<path d="M71.1826 123.879L83.3401 117.93L72.8742 109.665L71.1826 123.879Z" fill="#E27625" stroke="#E27625" stroke-width="0.25" stroke-linecap="round" stroke-linejoin="round"/>
<path opacity="0.8" d="M96.6606 117.93L108.783 123.879L107.127 109.665L96.6606 117.93Z" fill="#E27625" stroke="#E27625" stroke-width="0.25" stroke-linecap="round" stroke-linejoin="round"/>
<path d="M108.783 123.88L96.6606 117.931L97.6472 125.911L97.5414 129.295L108.783 123.88Z" fill="#D5BFB2" stroke="#D5BFB2" stroke-width="0.25" stroke-linecap="round" stroke-linejoin="round"/>
<path d="M71.1826 123.88L82.4594 129.295L82.3888 125.911L83.3401 117.931L71.1826 123.88Z" fill="#D5BFB2" stroke="#D5BFB2" stroke-width="0.25" stroke-linecap="round" stroke-linejoin="round"/>
<path d="M82.6704 104.393L72.5918 101.4L79.7102 98.0872L82.6704 104.393Z" fill="#233447" stroke="#233447" stroke-width="0.25" stroke-linecap="round" stroke-linejoin="round"/>
<path d="M97.3301 104.393L100.29 98.0872L107.444 101.4L97.3301 104.393Z" fill="#233447" stroke="#233447" stroke-width="0.25" stroke-linecap="round" stroke-linejoin="round"/>
<path d="M71.1822 123.879L72.9443 109.202L61.738 109.523L71.1822 123.879Z" fill="#CC6228" stroke="#CC6228" stroke-width="0.25" stroke-linecap="round" stroke-linejoin="round"/>
<path d="M107.056 109.202L108.783 123.879L118.262 109.523L107.056 109.202Z" fill="#CC6228" stroke="#CC6228" stroke-width="0.25" stroke-linecap="round" stroke-linejoin="round"/>
<path d="M115.549 93.0281L95.4622 93.9544L97.3298 104.393L100.29 98.0869L107.444 101.4L115.549 93.0281Z" fill="#CC6228" stroke="#CC6228" stroke-width="0.25" stroke-linecap="round" stroke-linejoin="round"/>
<path d="M72.5917 101.4L79.7101 98.0869L82.6703 104.393L84.538 93.9544L64.4514 93.0281L72.5917 101.4Z" fill="#CC6228" stroke="#CC6228" stroke-width="0.25" stroke-linecap="round" stroke-linejoin="round"/>
<path d="M64.4521 93.0281L72.8745 109.665L72.5924 101.4L64.4521 93.0281Z" fill="#E27525" stroke="#E27525" stroke-width="0.25" stroke-linecap="round" stroke-linejoin="round"/>
<path d="M107.444 101.4L107.127 109.665L115.549 93.0281L107.444 101.4Z" fill="#E27525" stroke="#E27525" stroke-width="0.25" stroke-linecap="round" stroke-linejoin="round"/>
<path d="M84.539 93.9544L82.6711 104.393L85.0322 116.719L85.5609 100.474L84.539 93.9544Z" fill="#E27525" stroke="#E27525" stroke-width="0.25" stroke-linecap="round" stroke-linejoin="round"/>
<path d="M95.4627 93.9544L94.4758 100.438L94.9692 116.719L97.3303 104.393L95.4627 93.9544Z" fill="#E27525" stroke="#E27525" stroke-width="0.25" stroke-linecap="round" stroke-linejoin="round"/>
<path d="M97.3303 104.393L94.9692 116.719L96.6608 117.93L107.127 109.665L107.444 101.4L97.3303 104.393Z" fill="#F5841F" stroke="#F5841F" stroke-width="0.25" stroke-linecap="round" stroke-linejoin="round"/>
<path d="M72.5918 101.4L72.8739 109.665L83.3399 117.93L85.0314 116.719L82.6704 104.393L72.5918 101.4Z" fill="#F5841F" stroke="#F5841F" stroke-width="0.25" stroke-linecap="round" stroke-linejoin="round"/>
<path d="M97.5419 129.295L97.6474 125.91L96.7313 125.126H83.2699L82.3888 125.91L82.4594 129.295L71.1826 123.88L75.1294 127.157L83.1288 132.75H96.8369L104.872 127.157L108.783 123.88L97.5419 129.295Z" fill="#C0AC9D" stroke="#C0AC9D" stroke-width="0.25" stroke-linecap="round" stroke-linejoin="round"/>
<path d="M96.6604 117.93L94.9688 116.719H85.0313L83.34 117.93L82.3884 125.91L83.2695 125.126H96.7309L97.6472 125.91L96.6604 117.93Z" fill="#161616" stroke="#161616" stroke-width="0.25" stroke-linecap="round" stroke-linejoin="round"/>
<path d="M132.605 75.7146L135.6 60.9659L131.09 47.2503L96.6606 73.0785L109.911 84.4071L128.623 89.9291L132.746 85.0485L130.949 83.7302L133.803 81.0942L131.618 79.3841L134.473 77.1753L132.605 75.7146Z" fill="#763E1A" stroke="#763E1A" stroke-width="0.25" stroke-linecap="round" stroke-linejoin="round"/>
<path d="M44.4004 60.9659L47.431 75.7146L45.4928 77.1753L48.3825 79.3841L46.1976 81.0942L49.052 83.7302L47.2548 85.0485L51.3778 89.9291L70.0902 84.4071L83.3401 73.0785L48.9111 47.2503L44.4004 60.9659Z" fill="#763E1A" stroke="#763E1A" stroke-width="0.25" stroke-linecap="round" stroke-linejoin="round"/>
<path d="M128.623 89.9288L109.911 84.4071L115.549 93.0284L107.127 109.665L118.263 109.523L134.896 109.523L128.623 89.9288Z" fill="#F5841F" stroke="#F5841F" stroke-width="0.25" stroke-linecap="round" stroke-linejoin="round"/>
<path d="M70.0896 84.4071L51.3775 89.9288L45.1401 109.523L61.738 109.523L72.8736 109.665L64.4514 93.0284L70.0896 84.4071Z" fill="#F5841F" stroke="#F5841F" stroke-width="0.25" stroke-linecap="round" stroke-linejoin="round"/>
<path d="M95.4624 93.9547L96.6606 73.0782L102.087 58.2228H77.9131L83.3399 73.0782L84.538 93.9547L84.9962 100.51L85.0314 116.719H94.969L95.0043 100.51L95.4624 93.9547Z" fill="#F5841F" stroke="#F5841F" stroke-width="0.25" stroke-linecap="round" stroke-linejoin="round"/>
</svg>
