<svg width="180" height="180" viewBox="0 0 180 180" fill="none" xmlns="http://www.w3.org/2000/svg">
<path d="M115.062 73.3967C113.213 72.2846 110.81 72.2846 108.777 73.3967L94.3565 81.9231L84.5583 87.4839L70.1385 96.0106C68.2899 97.1227 65.8865 97.1227 63.8529 96.0106L52.3909 89.3377C50.5422 88.2256 49.2481 86.1866 49.2481 83.9621L49.2481 70.8017C49.2481 68.5774 50.3573 66.5384 52.3909 65.4263L63.668 58.9387C65.5167 57.8265 67.9199 57.8265 69.9537 58.9387L81.2308 65.4263C83.0794 66.5384 84.3735 68.5774 84.3735 70.8017V79.3282L94.1716 73.5821V65.0556C94.1716 62.8312 93.0626 60.7923 91.0289 59.6802L70.1385 47.4464C68.2899 46.3343 65.8865 46.3343 63.8529 47.4464L42.5928 59.6802C40.5592 60.7923 39.45 62.8312 39.45 65.0556L39.45 89.7084C39.45 91.9326 40.5592 93.9716 42.5928 95.0837L63.8529 107.317C65.7016 108.43 68.105 108.43 70.1385 107.317L84.5583 98.9762L94.3565 93.2302L108.777 84.889C110.625 83.7769 113.029 83.7769 115.062 84.889L126.339 91.3767C128.188 92.4888 129.482 94.5278 129.482 96.752V109.913C129.482 112.137 128.373 114.176 126.339 115.288L115.062 121.961C113.213 123.073 110.81 123.073 108.777 121.961L97.4995 115.473C95.6506 114.361 94.3565 112.322 94.3565 110.098V101.571L84.5583 107.317V115.844C84.5583 118.068 85.6676 120.107 87.7013 121.219L108.961 133.453C110.81 134.565 113.213 134.565 115.247 133.453L136.507 121.219C138.356 120.107 139.65 118.068 139.65 115.844V91.1912C139.65 88.967 138.541 86.928 136.507 85.8159L115.062 73.3967Z" fill="#7950DD"/>
</svg>
