<svg width="180" height="180" viewBox="0 0 180 180" fill="none" xmlns="http://www.w3.org/2000/svg">
<path d="M138.124 36.9H41.8761C39.1278 36.9 36.8999 39.1279 36.8999 41.8762V138.124C36.8999 140.872 39.1278 143.1 41.8761 143.1H138.124C140.872 143.1 143.1 140.872 143.1 138.124V41.8762C143.1 39.1279 140.872 36.9 138.124 36.9Z" fill="#3178C6"/>
<path fill-rule="evenodd" clip-rule="evenodd" d="M98.5149 119.429V131.065C100.629 132.109 102.882 132.843 105.205 133.246C107.89 133.742 110.615 133.986 113.345 133.974C116.006 133.987 118.66 133.719 121.264 133.174C123.603 132.702 125.834 131.802 127.845 130.519C129.712 129.314 131.251 127.664 132.324 125.717C134.246 121.687 134.499 117.061 133.03 112.844C132.41 111.268 131.486 109.828 130.31 108.608C129.049 107.31 127.616 106.191 126.051 105.281C124.25 104.226 122.378 103.296 120.449 102.498C118.932 101.868 117.566 101.256 116.353 100.662C115.275 100.146 114.243 99.5378 113.269 98.845C112.506 98.3102 111.844 97.6451 111.312 96.8803C110.853 96.1858 110.613 95.3689 110.625 94.5363C110.615 93.77 110.829 93.0174 111.24 92.3706C111.686 91.6937 112.282 91.128 112.981 90.7169C113.835 90.2138 114.765 89.8514 115.734 89.6435C116.925 89.3791 118.141 89.2518 119.36 89.2642C120.386 89.2678 121.41 89.3413 122.425 89.4842C123.522 89.6325 124.606 89.8568 125.672 90.1555C126.755 90.4559 127.815 90.8362 128.843 91.2934C129.839 91.7378 130.793 92.2736 131.691 92.894V82.035C129.822 81.3278 127.883 80.8192 125.907 80.5179C123.521 80.1707 121.112 80.0071 118.7 80.0286C116.065 80.0144 113.437 80.3136 110.872 80.9199C108.554 81.4497 106.349 82.3914 104.363 83.7001C102.519 84.9289 100.996 86.582 99.922 88.5208C98.7841 90.6739 98.221 93.0842 98.2873 95.5186C98.2033 98.738 99.2636 101.883 101.28 104.394C103.754 107.178 106.873 109.313 110.364 110.61C111.957 111.268 113.442 111.911 114.82 112.541C116.064 113.094 117.259 113.75 118.393 114.502C119.308 115.097 120.112 115.848 120.768 116.721C121.344 117.512 121.65 118.469 121.64 119.448C121.645 120.182 121.457 120.904 121.094 121.541C120.69 122.227 120.124 122.801 119.444 123.214C118.593 123.733 117.663 124.107 116.69 124.322C115.423 124.605 114.127 124.739 112.829 124.72C110.281 124.715 107.754 124.266 105.361 123.392C102.861 122.49 100.542 121.148 98.5149 119.429ZM78.9665 90.459H94.1379V80.8744H51.8362V90.459H66.9393V133.144H78.9665V90.459Z" fill="white"/>
</svg>
