<svg width="180" height="180" viewBox="0 0 180 180" fill="none" xmlns="http://www.w3.org/2000/svg">
<path d="M45.9363 125.624C45.2049 126.249 44.3144 126.659 43.364 126.808C42.4136 126.957 41.4404 126.84 40.5527 126.469L31.0989 122.503C30.1559 122.11 29.3496 121.447 28.7807 120.599C28.2118 119.75 27.9054 118.752 27.8999 117.731V62.2562C27.9054 61.2344 28.2118 60.237 28.7807 59.3882C29.3496 58.5395 30.1559 57.8771 31.0989 57.4838L40.5527 53.5826C41.4404 53.2118 42.4136 53.0946 43.364 53.2438C44.3144 53.393 45.2049 53.8029 45.9363 54.4279L48.0559 56.1834C47.6261 55.8744 47.1192 55.6901 46.5913 55.6509C46.0633 55.6117 45.5348 55.719 45.064 55.9611C44.5933 56.2033 44.1985 56.5707 43.9233 57.023C43.6481 57.4752 43.5032 57.9947 43.5046 58.5241V121.463C43.5032 121.992 43.6481 122.512 43.9233 122.964C44.1985 123.416 44.5933 123.784 45.064 124.026C45.5348 124.268 46.0633 124.375 46.5913 124.336C47.1192 124.297 47.6261 124.113 48.0559 123.804L45.9363 125.624Z" fill="#52218A"/>
<path d="M31.0989 122.503C30.1559 122.11 29.3496 121.448 28.7807 120.599C28.2118 119.75 27.9054 118.753 27.8999 117.731V117.302C27.9063 117.902 28.0925 118.487 28.4344 118.98C28.7764 119.474 29.2584 119.854 29.8183 120.071C30.3781 120.288 30.9902 120.332 31.5754 120.198C32.1606 120.063 32.6922 119.757 33.1015 119.317L113.725 30.1759C114.867 29.0398 116.333 28.2849 117.921 28.0148C119.508 27.7448 121.141 27.9727 122.594 28.6675L148.316 41.0471C149.641 41.6842 150.759 42.6825 151.541 43.9272C152.323 45.1718 152.738 46.6122 152.737 48.0822V48.3813C152.736 47.4487 152.471 46.5355 151.972 45.7477C151.473 44.9599 150.76 44.33 149.917 43.931C149.074 43.532 148.135 43.3803 147.21 43.4936C146.284 43.607 145.409 43.9806 144.688 44.5712L48.0559 123.804L45.9363 125.624C45.2049 126.249 44.3144 126.659 43.364 126.808C42.4136 126.958 41.4404 126.84 40.5527 126.47L31.0989 122.503Z" fill="#6C33AF"/>
<path d="M31.0989 57.4838C30.1559 57.8771 29.3496 58.5395 28.7807 59.3882C28.2118 60.237 27.9054 61.2345 27.8999 62.2562V62.6853C27.9063 62.0849 28.0925 61.5002 28.4344 61.0067C28.7764 60.5131 29.2584 60.1334 29.8183 59.9164C30.3781 59.6995 30.9902 59.6553 31.5754 59.7896C32.1606 59.9238 32.6922 60.2304 33.1015 60.6697L113.725 149.811C114.867 150.947 116.333 151.702 117.921 151.972C119.508 152.242 121.141 152.014 122.594 151.32L148.316 138.94C149.641 138.303 150.759 137.305 151.541 136.06C152.323 134.815 152.738 133.375 152.737 131.905V131.606C152.736 132.538 152.471 133.452 151.972 134.239C151.473 135.027 150.76 135.657 149.917 136.056C149.074 136.455 148.135 136.607 147.21 136.494C146.284 136.38 145.409 136.007 144.688 135.416L48.0559 56.1834L45.9363 54.3628C45.1983 53.7486 44.3048 53.3506 43.3546 53.2129C42.4044 53.0752 41.4346 53.2031 40.5527 53.5826L31.0989 57.4838Z" fill="#854CC7"/>
<path d="M122.594 151.32C121.141 152.014 119.509 152.242 117.921 151.972C116.333 151.702 114.867 150.947 113.726 149.811C114.366 150.448 115.181 150.88 116.067 151.054C116.953 151.229 117.871 151.137 118.705 150.791C119.539 150.445 120.252 149.859 120.754 149.109C121.257 148.359 121.526 147.476 121.528 146.573V33.4396C121.531 32.5344 121.266 31.6485 120.765 30.8941C120.265 30.1397 119.552 29.5506 118.717 29.2012C117.882 28.8519 116.962 28.758 116.074 28.9314C115.185 29.1049 114.368 29.5378 113.726 30.1756C114.867 29.0395 116.333 28.2847 117.921 28.0146C119.509 27.7445 121.141 27.9725 122.594 28.6672L148.316 41.0339C149.641 41.6709 150.759 42.6693 151.541 43.9139C152.323 45.1586 152.738 46.5989 152.737 48.069V131.918C152.738 133.388 152.323 134.828 151.541 136.073C150.759 137.318 149.641 138.316 148.316 138.953L122.594 151.32Z" fill="#B179F1"/>
<g opacity="0.25">
<path fill-rule="evenodd" clip-rule="evenodd" d="M117.484 151.892C119.203 152.284 121.004 152.082 122.594 151.32L148.316 138.953C149.641 138.316 150.759 137.318 151.541 136.073C152.323 134.828 152.738 133.388 152.737 131.918V48.069C152.738 46.5989 152.323 45.1586 151.541 43.9139C150.759 42.6693 149.641 41.6709 148.316 41.0339L122.594 28.6672C120.774 27.7923 118.686 27.6572 116.768 28.2901C115.622 28.6743 114.58 29.3198 113.725 30.1756L72.2691 76.0273L48.0559 56.1834L45.9363 54.3628C45.2988 53.8178 44.5389 53.435 43.7215 53.247C42.9041 53.0591 42.0534 53.0716 41.2419 53.2835C41.0042 53.336 40.7731 53.4145 40.5527 53.5176L31.0989 57.4838C30.214 57.8491 29.4472 58.4516 28.8827 59.2248C28.3183 59.998 27.9782 60.912 27.8999 61.8661C27.8999 61.9961 27.8999 62.1262 27.8999 62.2562V117.731C27.8999 117.861 27.8999 117.991 27.8999 118.121C27.9782 119.075 28.3183 119.989 28.8827 120.762C29.4472 121.535 30.214 122.138 31.0989 122.503L40.5527 126.404C40.7731 126.507 41.0042 126.586 41.2419 126.638C42.0534 126.85 42.9041 126.863 43.7215 126.675C44.5389 126.487 45.2988 126.104 45.9363 125.559L48.0559 123.804L72.2691 103.96L113.725 149.811C114.759 150.843 116.061 151.564 117.484 151.892ZM121.528 63.5696L89.2912 89.9935L121.528 116.417V63.5696ZM43.5046 72.1391L59.6424 89.9935L43.5046 107.848V72.1391Z" fill="url(#paint0_linear_3_572)"/>
</g>
<defs>
<linearGradient id="paint0_linear_3_572" x1="90.3185" y1="27.9" x2="90.3185" y2="152.087" gradientUnits="userSpaceOnUse">
<stop stop-color="white"/>
<stop offset="1" stop-color="white" stop-opacity="0"/>
</linearGradient>
</defs>
</svg>
