<svg width="180" height="180" viewBox="0 0 180 180" fill="none" xmlns="http://www.w3.org/2000/svg">
<path d="M148.004 41.0561L122.281 28.6708C119.303 27.2372 115.745 27.8419 113.408 30.1786L29.1993 106.957C26.9343 109.022 26.9369 112.588 29.2049 114.65L36.0833 120.903C37.9375 122.589 40.73 122.713 42.7264 121.199L144.133 44.2692C147.535 41.6883 152.422 44.1148 152.422 48.3851V48.0864C152.422 45.0889 150.705 42.3565 148.004 41.0561Z" fill="#0065A9"/>
<g filter="url(#filter0_d_3_518)">
<path d="M148.004 138.943L122.281 151.329C119.303 152.763 115.745 152.158 113.408 149.821L29.1993 73.0423C26.9343 70.9771 26.9369 67.4111 29.2049 65.3493L36.0833 59.0961C37.9375 57.4105 40.73 57.2864 42.7264 58.8009L144.133 135.73C147.535 138.311 152.422 135.885 152.422 131.615V131.913C152.422 134.911 150.705 137.643 148.004 138.943Z" fill="#007ACC"/>
</g>
<g filter="url(#filter1_d_3_518)">
<path d="M122.282 151.331C119.303 152.764 115.745 152.158 113.408 149.821C116.288 152.7 121.211 150.661 121.211 146.589V33.4111C121.211 29.339 116.288 27.2997 113.408 30.1791C115.745 27.8421 119.303 27.2366 122.282 28.6689L148.001 41.0372C150.703 42.3369 152.422 45.0703 152.422 48.0691V131.931C152.422 134.93 150.703 137.664 148.001 138.963L122.282 151.331Z" fill="#1F9CF0"/>
</g>
<g style="mix-blend-mode:overlay" opacity="0.25">
<path style="mix-blend-mode:overlay" fill-rule="evenodd" clip-rule="evenodd" d="M116.031 151.569C117.997 152.335 120.24 152.286 122.224 151.331L147.927 138.963C150.628 137.664 152.346 134.93 152.346 131.931V48.0692C152.346 45.0703 150.628 42.3368 147.928 41.0372L122.224 28.669C119.62 27.4157 116.571 27.7226 114.285 29.3845C113.959 29.622 113.648 29.887 113.356 30.1791L64.1502 75.0705L42.7171 58.8011C40.722 57.2865 37.9312 57.4107 36.0781 59.0962L29.2039 65.3494C26.9372 67.4113 26.9346 70.9772 29.1982 73.0424L47.7857 90.0001L29.1982 106.958C26.9346 109.023 26.9372 112.589 29.2039 114.651L36.0781 120.904C37.9312 122.589 40.722 122.714 42.7171 121.199L64.1502 104.93L113.356 149.821C114.134 150.6 115.048 151.186 116.031 151.569ZM121.154 61.6592L83.818 90.0001L121.154 118.341V61.6592Z" fill="url(#paint0_linear_3_518)"/>
</g>
<defs>
<filter id="filter0_d_3_518" x="19.1689" y="49.41" width="141.586" height="111.022" filterUnits="userSpaceOnUse" color-interpolation-filters="sRGB">
<feFlood flood-opacity="0" result="BackgroundImageFix"/>
<feColorMatrix in="SourceAlpha" type="matrix" values="0 0 0 0 0 0 0 0 0 0 0 0 0 0 0 0 0 0 127 0" result="hardAlpha"/>
<feOffset/>
<feGaussianBlur stdDeviation="4.16667"/>
<feColorMatrix type="matrix" values="0 0 0 0 0 0 0 0 0 0 0 0 0 0 0 0 0 0 0.25 0"/>
<feBlend mode="overlay" in2="BackgroundImageFix" result="effect1_dropShadow_3_518"/>
<feBlend mode="normal" in="SourceGraphic" in2="effect1_dropShadow_3_518" result="shape"/>
</filter>
<filter id="filter1_d_3_518" x="105.075" y="19.5667" width="55.6804" height="140.867" filterUnits="userSpaceOnUse" color-interpolation-filters="sRGB">
<feFlood flood-opacity="0" result="BackgroundImageFix"/>
<feColorMatrix in="SourceAlpha" type="matrix" values="0 0 0 0 0 0 0 0 0 0 0 0 0 0 0 0 0 0 127 0" result="hardAlpha"/>
<feOffset/>
<feGaussianBlur stdDeviation="4.16667"/>
<feColorMatrix type="matrix" values="0 0 0 0 0 0 0 0 0 0 0 0 0 0 0 0 0 0 0.25 0"/>
<feBlend mode="overlay" in2="BackgroundImageFix" result="effect1_dropShadow_3_518"/>
<feBlend mode="normal" in="SourceGraphic" in2="effect1_dropShadow_3_518" result="shape"/>
</filter>
<linearGradient id="paint0_linear_3_518" x1="89.924" y1="27.9001" x2="89.924" y2="152.1" gradientUnits="userSpaceOnUse">
<stop stop-color="white"/>
<stop offset="1" stop-color="white" stop-opacity="0"/>
</linearGradient>
</defs>
</svg>
